<svg xmlns="http://www.w3.org/2000/svg" viewBox="0 0 410.89 316.92">
    <defs>
        <style>
            .cls-1 {
                fill: #fefefe;
            }

            .cls-2 {
                fill: #1d2d45;
            }

            .cls-3 {
                fill: #bb933d;
            }

            .cls-4 {
                fill: #545455;
            }

            .cls-5 {
                fill: #f1f2f3;
            }

            .cls-6 {
                fill: #1f2e46;
            }

            .cls-7 {
                fill: #1e2e45;
            }

            .cls-8 {
                fill: #1e2e46;
            }

            .cls-9 {
                fill: #edeef0;
            }

            .cls-10 {
                fill: #1f2f46;
            }

            .cls-11 {
                fill: #ebecee;
            }

            .cls-12 {
                fill: #e1e3e6;
            }

            .cls-13 {
                fill: #e8eaec;
            }

            .cls-14 {
                fill: #eff0f1;
            }

            .cls-15 {
                fill: #e6e2da;
            }

            .cls-16 {
                fill: #e4e0d7;
            }

            .cls-17 {
                fill: #e6e3db;
            }

            .cls-18 {
                fill: #e7e3db;
            }

            .cls-19 {
                fill: #e4e1d9;
            }

            .cls-20 {
                fill: #e5e1d9;
            }

            .cls-21 {
                fill: #e5e2dc;
            }

            .cls-22 {
                fill: #e5e2db;
            }

            .cls-23 {
                fill: #e5e2d9;
            }

            .cls-24 {
                fill: #f3f4f5;
            }

            .cls-25 {
                fill: #e3e1d9;
            }

            .cls-26 {
                fill: #e6e4de;
            }

            .cls-27 {
                fill: #e2e0d8;
            }

            .cls-28 {
                fill: #e7e9eb;
            }

            .cls-29 {
                fill: #d7dadd;
            }

            .cls-30 {
                fill: #c1c4c9;
            }

            .cls-31 {
                fill: #d1d0ca;
            }

            .cls-32 {
                fill: #89919d;
            }

            .cls-33 {
                fill: #bc943e;
            }

            .cls-34 {
                fill: #bc943f;
            }

            .cls-35 {
                fill: #bc953f;
            }

            .cls-36 {
                fill: #e7e2d8;
            }

            .cls-37 {
                fill: #f1e9d9;
            }

            .cls-38 {
                fill: #f1e9d8;
            }

            .cls-39 {
                fill: #e2e0db;
            }

            .cls-40 {
                fill: #f5efe4;
            }

            .cls-41 {
                fill: #4e5a6d;
            }

            .cls-42 {
                fill: #24344b;
            }

            .cls-43 {
                fill: #fff;
            }
        </style>
    </defs>
    <g id="Layer_2" data-name="Layer 2">
        <g id="Layer_1-2" data-name="Layer 1">
            <path class="cls-1"
                d="M201.57,188.37c.36,0,15.92,0,15.92.47,0,16.44,6.12,36.52,6.13,52.95,0,.5-.07.6-.42.6q-12.44,0-24.88,0t-24.89,0c-.35,0-.42-.1-.42-.6q0-24.64,0-49.31c0-.49.07-.59.42-.59" />
            <path class="cls-2"
                d="M401.7,185.23c.81,15.08,1.2,30.14-.72,45.2-.53,4.19-1.92,6.38-6.28,7.33-14.33,3.12-28.55,6.71-42.83,10-5.1,1.18-5.62.47-3.9-4.62-.28-7,2.07-13.67,2.73-20.58,1.36-14.47,1.24-28.81-1.66-43.07a21.17,21.17,0,0,1-.48-5.43c1.67-5.77-.23-10.71-2.33-16.2-2.71-7.06-5.65-14-8.53-21-2.62-6.37-7.39-11.39-10.79-17.27-1-1.68-2.75-2.32-4.55-2.81-3.31-1.59-5-4.86-7.24-7.44C293.72,85.06,267,70,235.54,63c-15.39-3.39-31-3.37-46.59-2.17-24.54,2.44-46.66,11.37-67,25-33.73,23.67-53.69,56.07-61.11,96.41a166.48,166.48,0,0,0-.51,42.78c-.09,3.3.86,6.45,1.54,9.64,1,4.06,2,8.11,2,12.34,0,1.79-1,1.6-2.27,1.36-16.54-3.12-32.79-7.49-49.12-11.53-2.05-.51-2.35-1.86-2.51-3.68-.6-6.77-1.34-13.53-2-20.29-2.6-4.86-1.49-10.14-1.13-15.12a235.15,235.15,0,0,1,4.52-34A203.21,203.21,0,0,1,25.7,121.43c2.28-4,4.19-8.24,6.34-12.33A198.15,198.15,0,0,1,149.31,15.8a194.11,194.11,0,0,1,60.53-8.07A197,197,0,0,1,340.32,61C373,91.26,392.7,128.41,400.84,171.94,401.66,176.32,401.41,180.8,401.7,185.23Z" />
            <path class="cls-3"
                d="M248.16,172.87c1-8.28,1.79-15.85,2.82-23.39.36-2.6-.36-3.79-2.93-4.74-28.65-10.49-57.24-10.22-85.88,0-2.33.83-3,1.74-2.6,4.31,1.18,7.68,2,15.43,3,24.28l-48.84-27c7.55-4,14.41-7.67,21.29-11.28C157,123.54,179,112.13,200.81,100.5c3.33-1.77,5.93-1.7,9.23,0,27.48,14.54,55,28.92,82.59,43.35,2.33,1.22,5.14,2.2.72,4.61C279,156.29,264.78,164.19,250.49,172A17.43,17.43,0,0,1,248.16,172.87Z" />
            <path class="cls-2"
                d="M6.87,221.11A49.37,49.37,0,0,0,7.6,231c.18,1.25,1.4,3.3-.73,3.75s-4.61,0-5-2.77A124.07,124.07,0,0,1,.15,217.17c-2.27-68,21.66-124.8,73.51-169.12,28.4-24.28,61.56-39,98.5-45.11C189.65,0,207.2-1,224.77,1.06,286.38,8.12,336,36.23,372.62,86.47c18.17,24.93,29.61,52.91,34.94,83.2,3.52,20,4.6,40.3,1.55,60.58-.18,1.24.25,2.75-1.11,3.64s-2.92,1.49-4.24.81c-1.67-.86-.69-2.69-.54-4,1.84-16.6,2.2-33.18-.47-49.73-2.84-6.61-3-13.84-4.64-20.73a199.94,199.94,0,0,0-25.7-60.72A192.53,192.53,0,0,0,335.32,56.6a195.38,195.38,0,0,0-91.49-44.81,197,197,0,0,0-50-3.67A195,195,0,0,0,130.2,22.6,203.53,203.53,0,0,0,75.32,56.44a197.61,197.61,0,0,0-42.47,51.67c-2.63,4-4.34,8.56-6.69,12.76A197.69,197.69,0,0,0,8.81,180.09,285.62,285.62,0,0,0,6.87,221.11Z" />
            <path class="cls-4"
                d="M205.54,222c.25-5.33,2.59-10.23,5.89-14.71,3.88-5.27,7.87-10.37,5.62-17.67-.83-2.68,1.58-1.88,2.83-1.77a102.67,102.67,0,0,1,21.35,4.68c2.84.87,4.22.34,4-2.63-.69-9.27,4.56-13.88,12.36-17.26a11.65,11.65,0,0,1,8.94-.63c14,4.47,15.16,6.54,12.65,20.74q-4.9,27.69-9.33,55.47c-.63,3.91-1.58,3.8-4.53,1.84-11.29-7.49-23.81-8.65-36.82-6.36-3.14.55-5.74.38-8.31-1.8-4.42-3.76-9.32-6.94-12.54-12A14.07,14.07,0,0,1,205.54,222Z" />
            <path class="cls-4"
                d="M179.84,243c-5.2,0-10.57-.47-15.81.12a41.46,41.46,0,0,0-19.39,7.27c-2.42,1.7-3.21,1.31-3.7-1.66q-5.28-32.34-10.85-64.63c-.52-3,.25-4.94,2.87-6.62a57,57,0,0,1,14-6.28,5.59,5.59,0,0,1,4.74.74,44.09,44.09,0,0,0,5.69,3.08c5.22,2.06,7.48,5.6,7.62,11.36.19,7.26.65,7.35,7.3,5.3A125.75,125.75,0,0,1,198.27,187c4.78-.42,6.48,2.25,4.5,6.65-1.15,2.57-3.41,4-5.64,5.47a70.56,70.56,0,0,0-11.92,9c-9.86,9.81-11.64,19-6,31.67C179.61,240.72,180.27,241.52,179.84,243Z" />
            <path class="cls-3"
                d="M205.65,141.76a108.05,108.05,0,0,1,37.67,6c2.06.72,3.43,1.18,3,4q-2.49,16.47-4.36,33c-.37,3.3-1.64,3.22-4.24,2.49a120.75,120.75,0,0,0-64.86-.06c-2.09.56-3.66,1.35-4-2-1.19-11-2.52-22-4.22-33-.46-3,.49-3.6,2.89-4.42A111.71,111.71,0,0,1,205.65,141.76Z" />
            <path class="cls-2"
                d="M104.63,238.69c-15.88,27-38.63,46.58-65.78,61.46-3,1.61-5.68,4.14-9.86,3.53,9.8-9.44,18.77-19.13,22.65-32.7-10.08-1.65-20.11-2.87-29.73-6.52.73-1.16,1.92-1.31,3.11-1.59a41.19,41.19,0,0,0,20.15-11.25,6,6,0,0,1,6.13-1.92c8.73,1.78,17.51,3.31,26.91,5.06-1.32-7.09-2.8-13.87-2.28-20.82.95-12.83,3.76-25,13.08-34.64a21.53,21.53,0,0,1,8.29-5.37c6.48-2.36,9.51-1.49,13.65,3.95,3.66,3.4,4.06,8.21,3.94,12.45-.26,9.41-3.43,18.21-8,26.43A4.8,4.8,0,0,1,104.63,238.69Z" />
            <path class="cls-2"
                d="M390.71,264A119.12,119.12,0,0,1,363.28,270c-2.91.25-3.61,1.22-2.47,4.11,3.79,9.64,9.81,17.67,17.06,24.91,1.83,1.83,3.44,3.87,5.25,5.92-7.94-2.58-14.7-7.36-21.7-11.69-22.05-13.59-40.11-31.13-53.18-53.61-4.88-8.4-8.61-17.24-9.6-27A24.36,24.36,0,0,1,301,198.52c3-5.78,5.7-6.81,12.13-5,8.26,2.34,13.19,8.48,16.52,15.61,6.11,13.1,8.13,26.91,4.53,41.2-.83,3.31-1.06,4.91,3.73,3.88,6.78-1.46,13.66-2.55,20.45-4.14,3.47-.82,6.43-.59,9.35,2.54C373.47,258.82,381.39,261.61,390.71,264Z" />
            <path class="cls-2"
                d="M346.93,240.89c-1.69,1.67-1.24,4.05-1.88,6.06-1.08,3.41-3.92,3.38-6,2.83-2.54-.65-.67-2.93-.25-4.38,22.9-78.18-23.21-157.84-102.62-175.73-80-18-151.49,33.87-166.59,105.84A140.58,140.58,0,0,0,74,250.68c-4.28-.59-8.43-.38-9.14-5.78-2.84-4.58-3-9.88-4-15-1.4-3.79-.4-7.93-1.77-11.73.1-11.61-.76-23.25,1-34.8,2.86-11.2,5.23-22.54,9.89-33.22a155.11,155.11,0,0,1,25.35-40.77C103,100.58,111.91,93.3,121,86.14c18.72-12.54,39-21.15,61.33-24.73A88.88,88.88,0,0,1,202.64,60c31.54-.89,60.14,8.11,86.11,25.74a128.82,128.82,0,0,1,30.7,28.74c1.11,1.46,2.71,2.47,3.71,4A142.63,142.63,0,0,1,350,183a153.77,153.77,0,0,1-1.17,53.32A11.76,11.76,0,0,1,346.93,240.89Z" />
            <path class="cls-2"
                d="M300.07,195c-7.19,13.57-3.51,26.26,2.43,38.62,13.5,28.07,35,48.54,61.56,64.15,7.73,4.55,15.53,8.9,24.28,11.35,4.22,1.17,7,4.8,10.51,7.37A101.48,101.48,0,0,1,371,308.78c-38.54-16.6-64.86-44.8-79.47-84A36.81,36.81,0,0,1,289,209.62C289.39,202.51,293.2,197.26,300.07,195Z" />
            <path class="cls-2"
                d="M112.12,196.57c-.43-1.85.36-2.09,1.81-1.31A15.87,15.87,0,0,1,122,206c2.52,10.32-1.45,19.5-5.46,28.31-19.89,43.62-53.43,70.95-100,82.31a36.71,36.71,0,0,1-4.58.3c5.24-3.26,8.52-6.48,13.23-8.4,34.39-14,62.61-35.39,80.74-68.58,1.32-5.35,4.09-10.13,6-15.25C115.49,215.29,115.2,206,112.12,196.57Z" />
            <path class="cls-5"
                d="M32,107.92C50.59,74.49,77.06,49,110.58,30.77c33.69-18.33,70-26.85,108-23.35,79.89,7.36,136.86,48.2,170.27,121.27a158.92,158.92,0,0,1,13.95,52.23c-1.41,1.18-.63,2.89-1.05,4.31-2.53-15.57-5.16-31.13-10.89-45.93C365.76,74.7,320.07,32.57,252.9,15.13,165.54-7.55,76.29,33.82,34.07,108.31a19.7,19.7,0,0,1-1.15,1.61C31.26,109.9,31.27,109.07,32,107.92Z" />
            <path class="cls-6"
                d="M187,250.92c-19.74-2.11-35.88,4.72-51,16.75-1.79-9.48-3.45-18.2-5.06-26.93-2.46-13.34-4.64-26.74-7.46-40-.82-3.89.25-6,4-8.32,3.88,22.67,7.69,45,11.66,68.11C150.38,249,163.82,245.27,179,247,182.62,247.44,184,248.09,187,250.92Z" />
            <path class="cls-6"
                d="M271.78,260.22c3.83-22.75,7.57-45,11.37-67.58,3.07,1.21,5.06,2.94,4.45,6.26q-6.17,33.54-12.47,67.06a8.52,8.52,0,0,1-.82,1.5c-12.22-11.32-27.67-15.43-43.38-18.94C242.21,243.82,255.73,247.83,271.78,260.22Z" />
            <path class="cls-7"
                d="M101.7,188.07c-17.67,7.19-22.16,9.64-29.41,41.26-2.38-15.51-3.26-30.83.27-46.19.73-3.19,1.76-4.22,4.86-3.1C85.29,182.89,93.64,184.37,101.7,188.07Z" />
            <path class="cls-8"
                d="M310.79,188.27c8.27-3.92,16.95-5.79,25.39-8.36,2.42-.74,2.45,1.34,2.83,3,3.49,15.09,2.8,30.22.33,45.49C336.19,210.58,331.45,194,310.79,188.27Z" />
            <path class="cls-9"
                d="M346.93,240.89c1.91-11.27,4-22.52,3.91-34-.21-30.73-8.71-58.87-26.26-84.19-.85-1.22-1.63-2.5-2.45-3.74a2.31,2.31,0,0,1,2.16-.61c5.48,3.91,8,10.05,11.21,15.54,6.16,10.48,10.2,21.89,13.55,33.54a30.84,30.84,0,0,1,.63,5.88c2.09,12.78,3.88,25.59,3.27,38.61-.5,10.61-1.48,21.14-5,31.27Z" />
            <path class="cls-10"
                d="M9,259.21c8.91-2.62,17.3-6,24.69-11.47,3.79-2.78,6.85.27,11.4.45A41.35,41.35,0,0,1,25.84,260,61.12,61.12,0,0,1,19,261.88,11,11,0,0,1,9,259.21Z" />
            <path class="cls-11"
                d="M6.87,221.11c-1.78-12.41-1.09-24.84.25-37.2a197.28,197.28,0,0,1,17.15-61.57,22.82,22.82,0,0,1,1.55-2.48c1.11-.21,1.7.07,1.29,1.33a208.69,208.69,0,0,0-19.17,91.7C6,215.42,7.67,218.43,6.87,221.11Z" />
            <path class="cls-12"
                d="M112.12,196.57c4.6,6.88,4.2,14.48,2.59,22A64.17,64.17,0,0,1,106,239.94l-1.35-1.25c3-6.81,6.55-13.43,8.08-20.81a33.06,33.06,0,0,0-1.76-20Z" />
            <path class="cls-13"
                d="M61.76,230q1.53,7.47,3.05,14.94L63.87,247a39.36,39.36,0,0,1-3-12C60.81,233.3,59.22,231.26,61.76,230Z" />
            <path class="cls-14"
                d="M324.05,118.87l-1.92.06C309.3,102.8,294.38,89.07,276.2,79.11a145.89,145.89,0,0,0-73.34-18.33c-4.68-1.15-9.55.68-14.2-.92,9.89-2.15,19.93-1.5,29.81-.67a145.11,145.11,0,0,1,71.69,26.05c12.39,8.61,22.9,19.22,32.52,30.76C323.88,116.6,324.85,117.31,324.05,118.87Z" />
            <path class="cls-15"
                d="M374.19,150.69c3.7.95,6.4,1.78,9.16,2.28,1.82.34,2.77.82,3.25,2.92,1.56,6.88,1.71,6.86-5.13,8.86-6.52,1.92-13.11,3.66-19.57,5.78-4.54,1.5-4-2.17-4.7-4.33s-2.4-4.88,1.92-5.53a35.82,35.82,0,0,0,5.31-1.73c-1.88-1.89-5-.71-5.8-3.61s2.1-3.86,2.84-5.93c-1.4-.72-2.69,0-3.8.55-3.92,1.75-5.25.25-6.44-3.59-1.3-4.15-.14-5.44,3.73-6.38,6.76-1.64,13.38-3.87,20.11-5.65,1.51-.39,3.79-2.45,4.71,0,1.09,2.85,3.7,5.94,1,9.24C378.91,145.83,376.78,147.9,374.19,150.69Z" />
            <path class="cls-16"
                d="M29.29,197.71C20.84,194,22.83,187.37,23.24,180c3,2.43,5.22,4.26,7.46,6.12,6.4,5.31,6.39,5.31,13.32.3,2.95-2.14,5.92-4.24,9.35-6.69a23.91,23.91,0,0,1,.22,11c-.77,3.74-5.69,4.18-7.56,7.23.19,1,.91,1,1.54,1,5.94.3,7.27,2.36,5.79,8.34-.55,2.27-2.06,1.78-3.43,1.76-7.82-.07-15.64-.32-23.46-.26-3,0-4.5-.84-3.91-3.95.5-2.59-1.8-7,4-6.31a8.1,8.1,0,0,0,1.47-.08Z" />
            <path class="cls-17"
                d="M360,98c1.41.11,1.75,1.13,2.25,2,2.47,4.15,4.78,8.4,7.43,12.43,1.53,2.33.78,3.23-1.27,4.63-3.2,2.19-6.94,3-10.33,4.68-4,2-6.44,5.78-10.38,7.79-2.34,1.19-3.43,1-4.65-1.27-2.67-5-8.12-10.15-7.58-14.67.52-4.35,8.48-5.88,13.05-8.84,3.07-2,6.3-3.74,9.46-5.59C358.72,98.68,359.45,98.29,360,98Z" />
            <path class="cls-9"
                d="M121,87.23c-14.64,11.36-27.77,24.14-37.84,39.88a152.6,152.6,0,0,0-21.11,52.83c-.16.8-.11,1.67-1.1,2a1.61,1.61,0,0,1-.89-1c2.21-16.16,7.81-31.18,15.59-45.4,11.12-20.31,25.91-37.39,45.27-50.32A1.47,1.47,0,0,1,121,87.23Z" />
            <path class="cls-18"
                d="M50.84,150.81c2.54-4.7,5.73-.63,8.48-.4s1.14,2.57.81,4c-1.05,4.52-2.28,9-3.32,13.53-.53,2.26-1.54,2.85-3.88,2.21-8-2.19-16-4.2-24.11-6.17-2.05-.5-2.69-1.31-2.08-3.46,1.36-4.78,2.48-9.64,3.68-14.46.4-1.61,1-2.84,3-2.14,5.43,1.84,10.89,3.63,16.31,5.52.23.08.19.92.28,1.4.4,2.1-1,3.92-.91,5.83A20.34,20.34,0,0,1,50.84,150.81Z" />
            <path class="cls-17"
                d="M238.71,38.61c.28-8.57,5.47-14.8,12.54-16.41a15.75,15.75,0,0,1,17.46,8.54c.75,1.63,3.2,4.52.05,5.28-2.75.66-6.66,4.79-9.19-.82-1.19-2.64-3.49-3.53-6.21-3a5.22,5.22,0,0,0-4.26,4.91,5.2,5.2,0,0,0,2.41,5.16,5.07,5.07,0,0,0,6.08,0c5.13-3.65,6.13,2.16,8.18,4.09,2.54,2.38-1.19,3.51-2.65,4.42-5.35,3.31-11,3.59-16.55.42A14.82,14.82,0,0,1,238.71,38.61Z" />
            <path class="cls-19"
                d="M147.11,57c-5.74,5.11-11.28,7.17-17.85-.12a27.56,27.56,0,0,0,.73,2.87c2.67,5.51,1.6,7.62-4.51,9.49-1.53.47-2.11,0-2.72-1.18-4.09-7.62-8.14-15.25-12.31-22.82-1-1.77-.54-2.66,1.15-3.49,3.57-1.76,7-3.94,10.66-5.42,6.83-2.75,14.91,1.54,14.67,8.56-.18,5.42,2.56,7.25,6.16,9.36C144.35,55,145.52,55.93,147.11,57Z" />
            <path class="cls-20"
                d="M87,60.6c.49.21,1.12.44,1.7.75,7.94,4.13,15.84,8.33,23.82,12.38,2.24,1.13,2.79,2.18.6,3.77-2.81,2-4.53,6.4-9.51,3.51-1.85-1.08-5.35,3.32-4.88,5.77S94.92,95.65,92.46,96c-1.49.22-1.53-1-1.87-1.81-3.5-8.42-7-16.82-10.4-25.28C79.26,66.61,84.27,60.53,87,60.6Z" />
            <path class="cls-21"
                d="M382.14,196.73c9.66,2.1,10.79,7.72,9,15.36-5.08-2.58-10.35-4.86-15.18-7.85-4-2.48-8.18-2.44-12.45-2.19-3.18.19-3.27-1.81-2.87-3.79.44-2.19-2-6.58,2.11-6.2,9.62.89,16.13-5.2,23.59-9.13,3.48-1.83,4.48-2.38,5,2.51C392.07,191.69,388.64,194,382.14,196.73Z" />
            <path class="cls-22"
                d="M305.18,46.3c-1.66,8.71-3.39,17.79-5.1,26.87-.28,1.5-.86,2.91-2.48,1.59-2.75-2.22-8.08-2.11-6.94-8.09.48-2.51-4.65-4.77-7-3.42s-9.41-.9-10.57-3.2c-.66-1.33.46-1.75,1.14-2.3C281.3,52,288.46,46.34,295.46,40.5c2.65-2.22,4.31,0,6.09,1S306,42.78,305.18,46.3Z" />
            <path class="cls-23"
                d="M343.13,80.59c.12,7.11-2.82,11.7-8.22,14.59a14,14,0,0,1-16-1.32c-3.66-2.83-6.7-6.45-10.1-9.64-1.58-1.48-.9-2.47.33-3.66,6.1-5.9,12.15-11.86,18.23-17.78.81-.78,1.71-2,2.88-.69,4.29,4.79,10,8.43,12.22,14.9A18.75,18.75,0,0,1,343.13,80.59Z" />
            <path class="cls-24"
                d="M121,87.23c0-.68,0-1.36-.08-2,20.37-14.33,42.76-23.27,67.72-25.33,4.71.72,9.57-.94,14.2.92C172.87,61.21,145.86,70.84,121,87.23Z" />
            <path class="cls-2"
                d="M324.05,118.87c-.46-1-.92-1.91-1.37-2.87,2.52-.46,4.3.93,5.38,2.82,4.91,8.62,11,16.42,14.43,26.11,2.32,6.54,4.57,13.36,7.68,19.72a9.31,9.31,0,0,1-.49,8.63c-4.71-16.83-10.74-33.08-20.62-47.66C327.49,123.3,325.73,121.11,324.05,118.87Z" />
            <path class="cls-25"
                d="M74,122.58c-2.78,5.52-5.48,11-8.35,16.47-.62,1.16-1.81.3-2.65-.11-7.62-3.73-15.24-7.45-22.82-11.26-4.72-2.37-.18-4.68.3-6.89s1.6-3.94,4.59-2.16c3.56,2.12,7.6,3.46,11.09,5.67,3.82,2.42,5.82,1.7,7.23-2.51.52-1.55.9-4.37,3-4,2.5.45,4.79,2.14,7.13,3.39C73.83,121.36,73.82,122.07,74,122.58Z" />
            <path class="cls-26"
                d="M195.79,42.76c3.13-8.24,6.37-16.44,9.31-24.74,1-2.86,3-2.85,5.13-2.53,2.38.36,5.42-1.15,6.65,2.67,2.77,8.55,5.81,17,8.7,25.51.43,1.27.88,3.12-1.29,2.72-3.49-.65-8.08,2.12-10.14-3.6-.91-2.51-5.79-1.63-8.28,1.19-1,1.31-1.9,1.82-2.52-.27a8.45,8.45,0,0,1,13.27-3.2c.73.66,1.19,1.6,2,2.15a1.88,1.88,0,0,0,2.29.22,1.49,1.49,0,0,0,.36-1.81c-2.22-7-4.21-14-7.35-20.64-1.36-2.88-4.76-2.76-6.2.28-3,6.45-5.18,13.31-8.2,19.78-1.44,3.08,3.19,2.18,2.33,4.47C196.43,45.88,196.43,45.88,195.79,42.76Z" />
            <path class="cls-27"
                d="M85.67,105.78c-1.58,2-3.06,4.5-5.21,6.19-1.45,1.14-2.89-1-4.16-1.94-6.09-4.36-12-9-18.19-13.15-3-2-2.07-3.78-.2-5.41,1.68-1.47,1.71-6.35,6-3.09,6.5,4.91,13.15,9.62,19.71,14.45C84.54,103.48,85.77,104,85.67,105.78Z" />
            <path class="cls-28"
                d="M60.08,180.91l.89,1c-1.27,12.22-1.18,24.46-.87,36.72.11,2.44,1.56,5.07-1,7.15-2.41-14.4-1.26-28.8,0-43.2C59.16,182,59.74,181.47,60.08,180.91Z" />
            <path class="cls-29"
                d="M27.11,121.19l-1.29-1.33c1.26-4.38,3.7-8.16,6.14-11.94.11.77.11,1.58,1,2Q30,115.56,27.11,121.19Z" />
            <path class="cls-30"
                d="M59.12,225.8c1.78-2.18.17-4.83,1-7.15q.82,5.65,1.66,11.31c-1.52,1.48-.36,3.45-.93,5.11A25.1,25.1,0,0,1,59.12,225.8Z" />
            <path class="cls-31"
                d="M195.79,42.76c1.29,3.56,3.75,2.27,6.1,1.47a1.22,1.22,0,0,1,2-.23c.68,1.15,1.33.1,2,0-1.64,2-9.42,3.1-10.72,1.4C194.47,44.5,195.09,43.52,195.79,42.76Z" />
            <path class="cls-32"
                d="M50.84,150.81c-.18,2.67-.37,5.34-2.81,8.35.23-3.55.69-6,2-8.32A1.08,1.08,0,0,0,50.84,150.81Z" />
            <path class="cls-33"
                d="M372.45,158.64c-4.17-1.15-6.79-1.94-9.45-2.59s-2.86-1.84-1.17-3.8,3.74-3.29,4.87-6.15c-3.74-.45-6.81,1.32-9.95,2.21-2.3.64-3-.13-3.5-2s-.91-3.58,1.67-4.32c6.87-2,13.71-4,20.58-5.94,1.24-.35,2.64-.73,3.32,1.09s1.8,3.74.23,5.6a54.8,54.8,0,0,1-4.79,5.08c-2.87,2.62-3.35,4.37,1.29,5.15,2.28.38,4.45,1.36,6.72,1.82,2.92.59,2.75,3.14,3.22,5.06.62,2.54-2,2.3-3.3,2.72-6.33,2-12.77,3.64-19.08,5.69-2.32.75-3.4.28-4.05-1.95s-.78-3.75,2.05-4.39C364.45,161.16,367.71,160,372.45,158.64Z" />
            <path class="cls-33"
                d="M33.47,200.14c-3.73-5.35-11.58-7.5-7.79-15.77,2.5,2.07,5.27,4.06,7.65,6.44s4.46,2.74,7.24.43c3.4-2.82,7.16-5.21,10.79-7.8,2.36,6.31-1.21,9.28-5.55,12-1.16.71-3.18,1.29-2.51,3.16.59,1.63,2.24,2.34,4.1,2.25,2.43-.13,4.64-.26,4.39,3.45S49.15,207,47.16,207c-6.32,0-12.64-.1-19-.17-2.08,0-4,.09-3.75-3.1.24-2.65,1.1-4,4-3.6A44.51,44.51,0,0,0,33.47,200.14Z" />
            <path class="cls-33"
                d="M368.24,114c-.26,1.65-2,1.89-3.08,2.71s-2.07.64-2.78-.73c-.85-1.62-1.83-3.17-2.81-4.72-.67-1-1.07-2.61-3-1.52s-1.14,2.41-.36,3.74a34.41,34.41,0,0,0,1.81,3c1.6,2.19.33,3.15-1.47,4.23s-2.67.7-3.94-1-1.29-6.52-5-4.48c-4.21,2.35.44,4.66,1.27,6.83s2,3.52-.87,5.12c-2.73,1.51-3.51,0-4.53-1.86-2.06-3.77-6.09-7.74-5.7-11.22.37-3.2,6.4-4.42,9.81-6.7a25.74,25.74,0,0,1,2.58-1.53c3.35-1.71,7.49-6.35,9.69-4.82,3.62,2.51,5.33,7.78,7.83,11.89A10.26,10.26,0,0,1,368.24,114Z" />
            <path class="cls-33"
                d="M29,159.14c.94-3.52,2-7,2.76-10.58.48-2.41,1.55-2.94,3.8-2.36s2.5,2,2.32,4.11c-.21,2.35-3.45,5.84-.06,6.83,4.07,1.19,2.77-3.74,3.71-5.89s2.08-1.84,3.81-1.5c2.13.42,2.87,1.31,2.13,3.41-.49,1.4-.75,2.89-1.18,4.31s-.24,2.21,1.31,2.6,2.67.56,3.18-1.21,1-3.51,1.36-5.29c.49-2.2,1.63-3,3.93-2.4s2.55,1.64,2.06,4c-2.86,13.63-2.77,13.64-16.16,10.25-3.54-.9-7.06-1.82-10.61-2.66C29.4,162.25,28.51,161.2,29,159.14Z" />
            <path class="cls-34"
                d="M240.78,37.54a13.61,13.61,0,0,1,10.07-13.28c5.79-1.58,12.59,1,15.59,6.15.75,1.27,2.6,3.14.54,4.24-1.68.9-4.18,2.57-6-.6a6.81,6.81,0,0,0-8-3.48,7.15,7.15,0,0,0-5.35,9.14,7.17,7.17,0,0,0,9.84,4.81c1.51-.59,2.55-1.71,4.33-.1,2.65,2.41,2.91,3.86-.56,5.68A13.92,13.92,0,0,1,240.78,37.54Z" />
            <path class="cls-33"
                d="M143.61,57c-3.74,3.47-7.15,4.29-10.73.68a8.4,8.4,0,0,0-1.68-1.06c-1.18-.7-2.47-1.3-3.66-.21-1.39,1.26.06,2.39.39,3.57.56,2,3.91,4-.13,6.07-2.19,1.13-3.47,1.12-4.71-1.29-3.1-6.06-6.37-12-9.69-18-1.16-2.08-1.49-3.47,1.2-4.59,2.91-1.2,5.55-3,8.47-4.2,5.78-2.32,13.2,2.17,12.19,8.16-.89,5.31,2,6.62,5.13,8.63C141.35,55.4,142.28,56.07,143.61,57Z" />
            <path class="cls-33"
                d="M106.37,80.09c-4.17-3.89-6,.44-8.52,2.42-1.43,1.12-2.1,2.29-1.19,4.26,1.45,3.16-1.16,5-3.25,5.72-2.38.81-2.31-2.25-2.94-3.68-2.65-6.08-4.91-12.34-7.63-18.39-1.19-2.65-.47-4.19,1.43-6S88,63,90.05,64.06c6.15,3.3,12.38,6.43,18.51,9.77,1.06.58,3.64.71,2.51,2.7A7,7,0,0,1,106.37,80.09Z" />
            <path class="cls-33"
                d="M380.08,196.28c9.74,7.73,9.74,7.73,9.39,12.29-3.52-.5-6.24-2.72-9.27-4.13-4.75-2.22-9.12-5.51-14.89-4.5-2.28.4-2.73-1.2-2.68-3.11,0-1.57.11-3.3,2.23-3,7.91,1,13.12-4.69,19.52-7.48,1.53-.66,3.54-3.6,4.8-1.16,1.11,2.13,1.42,5.54-2.19,7.16A76.19,76.19,0,0,0,380.08,196.28Z" />
            <path class="cls-33"
                d="M303.26,46.41c-1.57,8.38-3,16.21-4.53,24-.18.92-.35,2.38-1.69,1.74-1.7-.8-4.54-1.37-4.17-3.66.79-4.86-2.93-5.66-5.7-7.49-1.44-1-2.73-1.1-4,.23-2.66,2.8-4.52.08-6.41-1.12-1.73-1.09-.11-1.93.7-2.59,6-5,12.18-9.8,18.12-14.87,1.94-1.66,3.3-.76,4.87.19S304,44.46,303.26,46.41Z" />
            <path class="cls-33"
                d="M330.46,95c-7.09.07-18.38-7.66-19.86-11.86-.46-1.31.47-1.79,1.11-2.43,5.2-5.14,10.46-10.23,15.63-15.4,1.38-1.38,2.39-1.33,3.68.09,2.47,2.69,5.29,5.1,7.52,8,3.3,4.25,4,9.08,1.5,14S333.66,94.92,330.46,95Z" />
            <path class="cls-34"
                d="M71.5,123.45c-2.18,4.28-4.24,8.62-6.61,12.78-.89,1.58-2.39.37-3.52-.18-6.25-3.05-12.45-6.21-18.74-9.2-1.93-.92-2.39-1.92-1.35-3.81s1.73-3.5,4.43-2c3.45,2,7.34,3.18,10.66,5.31,4.26,2.71,6.83,2.17,8.19-2.83.9-3.3,2.71-4.28,5.67-2.06C70.88,122,71.74,122.28,71.5,123.45Z" />
            <path class="cls-33"
                d="M203.87,44l-2,.23-4.72-.57c3.21-8.18,6.36-16,9.35-23.94.9-2.36,2.49-2.62,4.68-2.65s3.62.69,4.36,3c2.22,6.79,4.71,13.49,6.87,20.29.41,1.27,2.42,3.32.08,4.16-1.79.64-4.24.83-5.91-1.29C212.39,37.85,206.85,38.22,203.87,44Z" />
            <path class="cls-35"
                d="M82.94,105.76a3.61,3.61,0,0,1-5.59,2.75c-5.8-4.16-11.52-8.45-17.34-12.58-1.63-1.15-1.77-2.21-.56-3.63s1.92-3.51,4.27-1.81q9.09,6.57,18.12,13.21A2.09,2.09,0,0,1,82.94,105.76Z" />
            <path class="cls-36"
                d="M129.09,46.24c-.18,2.87-2.56,3.91-4.68,4.38-2.36.53-3.12-2.19-3.07-3.62.1-2.57,2.84-2.94,4.8-3.4C127.76,43.22,128.87,44.41,129.09,46.24Z" />
            <path class="cls-37"
                d="M91.36,72.8c1.83.54,4.09.49,4.33,2.7.09.87-1.16,2.08-2,1.83C91.66,76.72,92.16,74.4,91.36,72.8Z" />
            <path class="cls-38"
                d="M295.31,52.21c-.41,1.87.31,3.92-1.73,4.82-.89.4-2.41-.55-2.28-1.32C291.62,53.85,293.18,52.84,295.31,52.21Z" />
            <path class="cls-39"
                d="M334.92,82.35c-.25,2.94-2.32,5.55-6.17,6.24-4.21.77-6.63-2.25-9-5-.88-1,.16-1.77.86-2.44a49.86,49.86,0,0,1,4.7-4.39c1.55-1.13,2.37-4.5,4.84-3A9,9,0,0,1,334.92,82.35Z" />
            <path class="cls-40"
                d="M210.6,27.71c1.38,2.06,2.45,3.46,1.5,5a1.8,1.8,0,0,1-2.64.07C208.28,31.19,209.9,29.9,210.6,27.71Z" />
            <path class="cls-41"
                d="M127.26,46.62a3,3,0,0,1-2.69,2,1.15,1.15,0,0,1-1.12-1.67,2.92,2.92,0,0,1,2.8-1.59C127.05,45.31,127.19,46,127.26,46.62Z" />
            <path class="cls-42"
                d="M333,81.8c-.25,2.56-1.48,4.87-5,5a6.06,6.06,0,0,1-5.87-3.71c-.4-.82,6.61-7.89,7.36-7.44A6.54,6.54,0,0,1,333,81.8Z" />
            <polygon class="cls-43"
                points="21.91 264.46 19.48 261.78 32.59 257.38 40.72 252.83 45.1 248.19 47.42 249.97 39.49 256.43 21.91 264.46" />
            <polygon class="cls-43"
                points="104.09 238.49 96.26 251.4 82.23 267.9 68.41 281.42 60.44 286.57 35.12 302.37 32.66 303.77 34.61 304.45 43.36 300.14 52.63 294.91 60.44 289.9 67.94 284.44 84.5 269.51 102.12 246.58 106.39 239.28 104.09 238.49" />
            <polygon class="cls-43" points="17.27 262.32 22.07 265.27 22.07 264.39 19.12 262.32 17.27 262.32" />
            <polygon class="cls-43"
                points="300.07 195.01 302.21 196.39 298.99 204.07 298.47 205.87 298.25 206.96 298.25 209.61 298.25 211.76 298.25 213.4 298.47 214.35 298.85 216.45 299.25 218.4 299.82 221 300.79 223.61 301.45 226.16 306.47 236.42 322.08 259.43 340.3 277.88 358.68 291.48 376.28 303.77 380.61 304.43 377.03 304.82 373.09 302.86 363.54 297.48 346.29 285.99 338.36 279.66 328.68 270.68 311.76 249.92 309.07 245.7 303.52 235.71 298.03 222.5 296.25 213.69 296.76 204.07 298.61 198.11 300.07 195.01" />
            <polygon class="cls-43" points="381 306.58 382.89 305.15 380.54 304.42 377.03 304.82 381 306.58" />
            <polygon class="cls-43"
                points="127.46 192.41 131.35 191.41 142.25 251.37 143.45 255.88 139.69 259.95 127.46 192.41" />
            <polygon class="cls-43"
                points="180.34 247.03 179.96 242.38 161.12 243.55 142.12 250.68 143.45 256.56 152.79 250.68 161.23 248.54 167.58 247.03 174.53 246.4 180.34 247.03" />
            <polygon class="cls-43"
                points="186.96 250.92 186.48 242.39 179.96 242.38 180.34 247.03 184.06 248.54 186.7 250.68 186.96 250.92" />
            <polygon class="cls-43"
                points="224.12 243.8 228.5 243.68 239.34 242.64 247.32 243.16 252.05 244.11 254.35 244.77 257.6 245.94 260.59 247.3 262.84 248.5 265.32 250.04 267.6 251.28 268.16 251.37 268.71 251.2 269.26 250.48 269.6 249.48 270.04 247 270.55 243.83 271.31 239.09 273.18 227.73 273.8 223.98 275.01 216.82 277.96 199.65 279.44 191.21 283.15 192.64 282.71 195.22 281.95 199.76 280.93 205.83 280.07 210.95 278.57 219.85 276.47 232.34 275.81 236.3 273.27 251.37 272.18 257.88 271.78 260.22 270.36 258.19 267.86 256.75 266.05 254.89 261.96 252.88 253.63 249.36 244.75 246.79 238.46 246.7 235.05 247.22 230.93 248.52 224.12 243.8" />
            <polygon class="cls-43"
                points="7.94 234.13 10.46 235.39 8.08 214.31 6.98 215.42 7.05 219.07 7.99 233.9 7.94 234.13" />
            <polygon class="cls-43" points="6.71 213.15 7.98 213.35 7.98 214.76 6.71 214.76 6.71 213.15" />
            <polygon class="cls-43" points="63.67 248.11 65.46 248.01 65.11 246.33 63.8 246.88 63.67 248.11" />
            <polygon class="cls-43" points="344.59 248.54 347.69 248.07 347.69 242.55 346.14 240.7 344.59 248.54" />
            <polygon class="cls-43"
                points="400.43 233.08 403.04 234.06 403.6 227 404.44 215.53 404.07 191.63 403.21 183.99 402.75 182.18 401.92 189.69 402.19 196.39 402.37 205.42 402.2 208.83 401.95 219.95 401.06 229.17 400.43 233.08" />
            <polygon class="cls-43" points="400.43 234.99 403.46 234.99 403.23 234.32 400.43 233.08 400.43 234.99" />
            <polygon class="cls-43" points="186.64 250.68 230.62 248.28 219.87 241.64 186.64 240.45 186.64 250.68" />
            <path class="cls-43" d="M185.06,242.65l5.5,1.84-1.33,5.3s-5.8-1.18-5.77-1.6S185.06,242.65,185.06,242.65Z" />
            <polygon class="cls-43"
                points="221.63 243.73 229.53 244.49 232 248.18 225.1 248.54 217.34 246.13 221.25 243.73 221.63 243.73" />
        </g>
    </g>
</svg>